<svg width="48" height="52" viewBox="0 0 48 52" fill="none" xmlns="http://www.w3.org/2000/svg">
<path d="M21.1751 26.825C21.9501 27.6125 22.9751 28 24.0001 28C25.0251 28 26.0476 27.6094 26.8276 26.8281L46.8276 6.82812C48.3901 5.26562 48.3901 2.73438 46.8276 1.17188C45.2651 -0.390625 42.7339 -0.390625 41.1714 1.17188L24.0001 18.35L6.82886 1.1725C5.26636 -0.39 2.73511 -0.39 1.17261 1.1725C-0.389893 2.735 -0.389893 5.26625 1.17261 6.82875L21.1751 26.825ZM41.1751 25.175L24.0001 42.35L6.82886 25.175C5.26636 23.6125 2.73511 23.6125 1.17261 25.175C-0.389893 26.7375 -0.389893 29.2687 1.17261 30.8312L21.1726 50.8312C21.9501 51.6125 22.9751 52 24.0001 52C25.0251 52 26.0476 51.6094 26.8276 50.8281L46.8276 30.8281C48.3901 29.2656 48.3901 26.7344 46.8276 25.1719C45.2651 23.6094 42.7376 23.6125 41.1751 25.175Z" fill="white"/>
</svg>
